# MagicaVoxel @ ephtracy

# material
mtllib game_scenery-test.mtl
usemtl palette

# normals
vn -1 0 0
vn 1 0 0
vn 0 0 1
vn 0 0 -1
vn 0 -1 0
vn 0 1 0

# texcoords
vt 0.533203 0.5
vt 0.537109 0.5
vt 0.603516 0.5
vt 0.904297 0.5
vt 0.970703 0.5

# verts and faces
v -25 0 25
v -25 0 -25
v -25 3 25
v -25 3 -25
v -25 4 25
v -25 4 -25
f -4/1/1 -5/1/1 -6/1/1
f -3/1/1 -5/1/1 -4/1/1
f -2/3/1 -3/3/1 -4/3/1
f -1/3/1 -3/3/1 -2/3/1
v -14 10 -12
v -14 10 -16
v -14 14 -12
v -14 14 -16
f -2/4/1 -3/4/1 -4/4/1
f -1/4/1 -3/4/1 -2/4/1
v -13 9 -12
v -13 9 -16
v -13 10 -11
v -13 10 -12
v -13 10 -16
v -13 10 -17
v -13 14 -11
v -13 14 -12
v -13 14 -16
v -13 14 -17
v -13 15 -12
v -13 15 -16
f -9/4/1 -11/4/1 -12/4/1
f -8/4/1 -11/4/1 -9/4/1
f -6/4/1 -9/4/1 -10/4/1
f -5/4/1 -9/4/1 -6/4/1
f -4/4/1 -7/4/1 -8/4/1
f -3/4/1 -7/4/1 -4/4/1
f -2/4/1 -4/4/1 -5/4/1
f -1/4/1 -4/4/1 -2/4/1
v -12 4 -13
v -12 4 -15
v -12 9 -13
v -12 9 -15
f -2/2/1 -3/2/1 -4/2/1
f -1/2/1 -3/2/1 -2/2/1
v 3 4 9
v 3 4 3
v 3 5 4
v 3 5 3
v 3 6 9
v 3 6 7
v 3 6 5
v 3 6 4
v 3 7 7
v 3 7 5
f -8/5/1 -9/5/1 -10/5/1
f -7/5/1 -9/5/1 -8/5/1
f -6/5/1 -8/5/1 -10/5/1
f -5/5/1 -8/5/1 -6/5/1
f -4/5/1 -8/5/1 -5/5/1
f -3/5/1 -8/5/1 -4/5/1
f -2/5/1 -4/5/1 -5/5/1
f -1/5/1 -4/5/1 -2/5/1
v 4 5 4
v 4 5 3
v 4 6 8
v 4 6 7
v 4 6 5
v 4 6 4
v 4 6 3
v 4 7 8
v 4 7 7
v 4 7 5
v 4 7 4
v 4 8 7
v 4 8 5
f -8/5/1 -12/5/1 -13/5/1
f -7/5/1 -12/5/1 -8/5/1
f -6/5/1 -10/5/1 -11/5/1
f -5/5/1 -10/5/1 -6/5/1
f -4/5/1 -8/5/1 -9/5/1
f -3/5/1 -8/5/1 -4/5/1
f -2/5/1 -4/5/1 -5/5/1
f -1/5/1 -4/5/1 -2/5/1
v -10 4 -13
v -10 4 -15
v -10 9 -13
v -10 9 -15
v -10 10 -16
v -10 10 -17
v -10 11 -16
v -10 11 -17
f -8/2/2 -7/2/2 -6/2/2
f -6/2/2 -7/2/2 -5/2/2
f -4/4/2 -3/4/2 -2/4/2
f -2/4/2 -3/4/2 -1/4/2
v -9 9 -12
v -9 9 -16
v -9 10 -11
v -9 10 -12
v -9 10 -16
v -9 11 -16
v -9 11 -17
v -9 14 -11
v -9 14 -12
v -9 14 -16
v -9 14 -17
v -9 15 -12
v -9 15 -16
f -13/4/2 -12/4/2 -10/4/2
f -10/4/2 -12/4/2 -9/4/2
f -11/4/2 -10/4/2 -6/4/2
f -6/4/2 -10/4/2 -5/4/2
f -8/4/2 -7/4/2 -4/4/2
f -4/4/2 -7/4/2 -3/4/2
f -5/4/2 -4/4/2 -2/4/2
f -2/4/2 -4/4/2 -1/4/2
v -8 10 -12
v -8 10 -16
v -8 14 -12
v -8 14 -16
f -4/4/2 -3/4/2 -2/4/2
f -2/4/2 -3/4/2 -1/4/2
v 5 5 4
v 5 5 3
v 5 6 5
v 5 6 4
v 5 6 3
v 5 7 5
v 5 7 4
f -7/5/2 -6/5/2 -4/5/2
f -4/5/2 -6/5/2 -3/5/2
f -5/5/2 -4/5/2 -2/5/2
f -2/5/2 -4/5/2 -1/5/2
v 6 5 9
v 6 5 7
v 6 6 9
v 6 6 8
v 6 7 8
v 6 7 7
v 6 7 5
v 6 8 7
v 6 8 5
f -9/5/2 -8/5/2 -7/5/2
f -7/5/2 -8/5/2 -6/5/2
f -6/5/2 -8/5/2 -5/5/2
f -5/5/2 -8/5/2 -4/5/2
f -4/5/2 -3/5/2 -2/5/2
f -2/5/2 -3/5/2 -1/5/2
v 7 4 9
v 7 4 3
v 7 5 9
v 7 5 7
v 7 5 4
v 7 5 3
v 7 6 5
v 7 6 4
v 7 7 7
v 7 7 5
f -10/5/2 -9/5/2 -8/5/2
f -8/5/2 -9/5/2 -7/5/2
f -7/5/2 -9/5/2 -6/5/2
f -6/5/2 -9/5/2 -5/5/2
f -7/5/2 -6/5/2 -4/5/2
f -4/5/2 -6/5/2 -3/5/2
f -7/5/2 -4/5/2 -2/5/2
f -2/5/2 -4/5/2 -1/5/2
v 25 0 25
v 25 0 -25
v 25 3 25
v 25 3 -25
v 25 4 25
v 25 4 -25
f -6/1/2 -5/1/2 -4/1/2
f -4/1/2 -5/1/2 -3/1/2
f -4/3/2 -3/3/2 -2/3/2
f -2/3/2 -3/3/2 -1/3/2
v -25 0 25
v -25 3 25
v -25 4 25
v 25 0 25
v 25 3 25
v 25 4 25
f -3/1/3 -5/1/3 -6/1/3
f -2/3/3 -4/3/3 -5/3/3
f -2/1/3 -5/1/3 -3/1/3
f -1/3/3 -4/3/3 -2/3/3
v 3 4 9
v 3 6 9
v 6 5 9
v 6 6 9
v 7 4 9
v 7 5 9
f -4/5/3 -5/5/3 -6/5/3
f -3/5/3 -5/5/3 -4/5/3
f -2/5/3 -4/5/3 -6/5/3
f -1/5/3 -4/5/3 -2/5/3
v 4 6 8
v 4 7 8
v 6 6 8
v 6 7 8
f -2/5/3 -3/5/3 -4/5/3
f -1/5/3 -3/5/3 -2/5/3
v 3 6 7
v 3 7 7
v 4 6 7
v 4 7 7
v 4 8 7
v 6 5 7
v 6 7 7
v 6 8 7
v 7 5 7
v 7 7 7
f -8/5/3 -9/5/3 -10/5/3
f -7/5/3 -9/5/3 -8/5/3
f -4/5/3 -6/5/3 -7/5/3
f -3/5/3 -6/5/3 -4/5/3
f -2/5/3 -4/5/3 -5/5/3
f -1/5/3 -4/5/3 -2/5/3
v -13 10 -11
v -13 14 -11
v -9 10 -11
v -9 14 -11
f -2/4/3 -3/4/3 -4/4/3
f -1/4/3 -3/4/3 -2/4/3
v -14 10 -12
v -14 14 -12
v -13 9 -12
v -13 10 -12
v -13 14 -12
v -13 15 -12
v -9 9 -12
v -9 10 -12
v -9 14 -12
v -9 15 -12
v -8 10 -12
v -8 14 -12
f -9/4/3 -11/4/3 -12/4/3
f -8/4/3 -11/4/3 -9/4/3
f -6/4/3 -9/4/3 -10/4/3
f -5/4/3 -9/4/3 -6/4/3
f -4/4/3 -7/4/3 -8/4/3
f -3/4/3 -7/4/3 -4/4/3
f -2/4/3 -4/4/3 -5/4/3
f -1/4/3 -4/4/3 -2/4/3
v -12 4 -13
v -12 9 -13
v -10 4 -13
v -10 9 -13
f -2/2/3 -3/2/3 -4/2/3
f -1/2/3 -3/2/3 -2/2/3
v 3 6 5
v 3 7 5
v 4 6 5
v 4 7 5
v 4 8 5
v 5 6 5
v 5 7 5
v 6 7 5
v 6 8 5
v 7 6 5
v 7 7 5
f -11/5/4 -10/5/4 -9/5/4
f -9/5/4 -10/5/4 -8/5/4
f -8/5/4 -7/5/4 -5/5/4
f -5/5/4 -7/5/4 -4/5/4
f -6/5/4 -5/5/4 -4/5/4
f -4/5/4 -7/5/4 -3/5/4
f -6/5/4 -4/5/4 -2/5/4
f -2/5/4 -4/5/4 -1/5/4
v 3 5 4
v 3 6 4
v 4 5 4
v 4 6 4
v 4 7 4
v 5 5 4
v 5 6 4
v 5 7 4
v 7 5 4
v 7 6 4
f -10/5/4 -9/5/4 -8/5/4
f -8/5/4 -9/5/4 -7/5/4
f -7/5/4 -6/5/4 -4/5/4
f -4/5/4 -6/5/4 -3/5/4
f -5/5/4 -4/5/4 -2/5/4
f -2/5/4 -4/5/4 -1/5/4
v 3 4 3
v 3 5 3
v 4 5 3
v 4 6 3
v 5 5 3
v 5 6 3
v 7 4 3
v 7 5 3
f -8/5/4 -7/5/4 -6/5/4
f -8/5/4 -6/5/4 -4/5/4
f -6/5/4 -5/5/4 -4/5/4
f -4/5/4 -5/5/4 -3/5/4
f -8/5/4 -4/5/4 -2/5/4
f -2/5/4 -4/5/4 -1/5/4
v -12 4 -15
v -12 9 -15
v -10 4 -15
v -10 9 -15
f -4/2/4 -3/2/4 -2/2/4
f -2/2/4 -3/2/4 -1/2/4
v -14 10 -16
v -14 14 -16
v -13 9 -16
v -13 10 -16
v -13 14 -16
v -13 15 -16
v -10 10 -16
v -10 11 -16
v -9 9 -16
v -9 10 -16
v -9 11 -16
v -9 14 -16
v -9 15 -16
v -8 10 -16
v -8 14 -16
f -15/4/4 -14/4/4 -12/4/4
f -12/4/4 -14/4/4 -11/4/4
f -13/4/4 -12/4/4 -9/4/4
f -13/4/4 -9/4/4 -7/4/4
f -9/4/4 -8/4/4 -7/4/4
f -7/4/4 -8/4/4 -6/4/4
f -6/4/4 -8/4/4 -5/4/4
f -11/4/4 -10/4/4 -4/4/4
f -4/4/4 -10/4/4 -3/4/4
f -6/4/4 -5/4/4 -2/4/4
f -5/4/4 -4/4/4 -2/4/4
f -2/4/4 -4/4/4 -1/4/4
v -13 10 -17
v -13 14 -17
v -10 10 -17
v -10 11 -17
v -9 11 -17
v -9 14 -17
f -6/4/4 -5/4/4 -4/4/4
f -4/4/4 -5/4/4 -3/4/4
f -3/4/4 -5/4/4 -2/4/4
f -2/4/4 -5/4/4 -1/4/4
v -25 0 -25
v -25 3 -25
v -25 4 -25
v 25 0 -25
v 25 3 -25
v 25 4 -25
f -6/1/4 -5/1/4 -3/1/4
f -5/3/4 -4/3/4 -2/3/4
f -3/1/4 -5/1/4 -2/1/4
f -2/3/4 -4/3/4 -1/3/4
v -25 0 25
v 25 0 25
v -25 0 -25
v 25 0 -25
f -2/1/5 -3/1/5 -4/1/5
f -1/1/5 -3/1/5 -2/1/5
v -13 9 -12
v -9 9 -12
v -12 9 -13
v -10 9 -13
v -12 9 -15
v -10 9 -15
v -13 9 -16
v -9 9 -16
f -6/4/5 -7/4/5 -8/4/5
f -5/4/5 -7/4/5 -6/4/5
f -4/4/5 -6/4/5 -8/4/5
f -3/4/5 -7/4/5 -5/4/5
f -2/4/5 -4/4/5 -8/4/5
f -2/4/5 -3/4/5 -4/4/5
f -1/4/5 -7/4/5 -3/4/5
f -1/4/5 -3/4/5 -2/4/5
v -13 10 -11
v -9 10 -11
v -14 10 -12
v -13 10 -12
v -9 10 -12
v -8 10 -12
v -14 10 -16
v -13 10 -16
v -10 10 -16
v -9 10 -16
v -8 10 -16
v -13 10 -17
v -10 10 -17
f -10/4/5 -12/4/5 -13/4/5
f -9/4/5 -12/4/5 -10/4/5
f -7/4/5 -10/4/5 -11/4/5
f -6/4/5 -10/4/5 -7/4/5
f -4/4/5 -8/4/5 -9/4/5
f -3/4/5 -8/4/5 -4/4/5
f -2/4/5 -5/4/5 -6/4/5
f -1/4/5 -5/4/5 -2/4/5
v -10 11 -16
v -9 11 -16
v -10 11 -17
v -9 11 -17
f -2/4/5 -3/4/5 -4/4/5
f -1/4/5 -3/4/5 -2/4/5
v -25 4 25
v 25 4 25
v 3 4 9
v 7 4 9
v 3 4 3
v 7 4 3
v -12 4 -13
v -10 4 -13
v -12 4 -15
v -10 4 -15
v -25 4 -25
v 25 4 -25
f -12/3/6 -11/3/6 -10/3/6
f -10/3/6 -11/3/6 -9/3/6
f -12/3/6 -10/3/6 -8/3/6
f -9/3/6 -11/3/6 -7/3/6
f -12/3/6 -8/3/6 -6/3/6
f -8/3/6 -7/3/6 -6/3/6
f -6/3/6 -7/3/6 -5/3/6
f -12/3/6 -6/3/6 -4/3/6
f -5/3/6 -7/3/6 -3/3/6
f -12/3/6 -4/3/6 -2/3/6
f -4/3/6 -3/3/6 -2/3/6
f -7/3/6 -11/3/6 -1/3/6
f -2/3/6 -3/3/6 -1/3/6
f -3/3/6 -7/3/6 -1/3/6
v 6 5 9
v 7 5 9
v 6 5 7
v 7 5 7
v 3 5 4
v 4 5 4
v 5 5 4
v 7 5 4
v 3 5 3
v 4 5 3
v 5 5 3
v 7 5 3
f -12/5/6 -11/5/6 -10/5/6
f -10/5/6 -11/5/6 -9/5/6
f -8/5/6 -7/5/6 -4/5/6
f -4/5/6 -7/5/6 -3/5/6
f -6/5/6 -5/5/6 -2/5/6
f -2/5/6 -5/5/6 -1/5/6
v 3 6 9
v 6 6 9
v 4 6 8
v 6 6 8
v 3 6 7
v 4 6 7
v 3 6 5
v 4 6 5
v 5 6 5
v 7 6 5
v 3 6 4
v 4 6 4
v 5 6 4
v 7 6 4
v 4 6 3
v 5 6 3
f -16/5/6 -15/5/6 -14/5/6
f -14/5/6 -15/5/6 -13/5/6
f -16/5/6 -14/5/6 -12/5/6
f -12/5/6 -14/5/6 -11/5/6
f -10/5/6 -9/5/6 -6/5/6
f -6/5/6 -9/5/6 -5/5/6
f -8/5/6 -7/5/6 -4/5/6
f -4/5/6 -7/5/6 -3/5/6
f -5/5/6 -4/5/6 -2/5/6
f -2/5/6 -4/5/6 -1/5/6
v 4 7 8
v 6 7 8
v 3 7 7
v 4 7 7
v 6 7 7
v 7 7 7
v 3 7 5
v 4 7 5
v 5 7 5
v 6 7 5
v 7 7 5
v 4 7 4
v 5 7 4
f -13/5/6 -12/5/6 -10/5/6
f -10/5/6 -12/5/6 -9/5/6
f -11/5/6 -10/5/6 -7/5/6
f -7/5/6 -10/5/6 -6/5/6
f -9/5/6 -8/5/6 -4/5/6
f -4/5/6 -8/5/6 -3/5/6
f -6/5/6 -5/5/6 -2/5/6
f -2/5/6 -5/5/6 -1/5/6
v 4 8 7
v 6 8 7
v 4 8 5
v 6 8 5
f -4/5/6 -3/5/6 -2/5/6
f -2/5/6 -3/5/6 -1/5/6
v -13 14 -11
v -9 14 -11
v -14 14 -12
v -13 14 -12
v -9 14 -12
v -8 14 -12
v -14 14 -16
v -13 14 -16
v -9 14 -16
v -8 14 -16
v -13 14 -17
v -9 14 -17
f -12/4/6 -11/4/6 -9/4/6
f -9/4/6 -11/4/6 -8/4/6
f -10/4/6 -9/4/6 -6/4/6
f -6/4/6 -9/4/6 -5/4/6
f -8/4/6 -7/4/6 -4/4/6
f -4/4/6 -7/4/6 -3/4/6
f -5/4/6 -4/4/6 -2/4/6
f -2/4/6 -4/4/6 -1/4/6
v -13 15 -12
v -9 15 -12
v -13 15 -16
v -9 15 -16
f -4/4/6 -3/4/6 -2/4/6
f -2/4/6 -3/4/6 -1/4/6
